<svg xmlns="http://www.w3.org/2000/svg" xmlns:xlink="http://www.w3.org/1999/xlink" version="1.1" x="0px" y="0px" viewBox="0 0 43 53.75" enable-background="new 0 0 43 43" xml:space="preserve"><g><g><path d="M0,0v43h43V0H0z M40,40H3V3h37V40z M35,8H8v27h27V8z M32,32H11v-5h21V32z M32,24H11v-5h21V24z M32,16H11    v-5h21V16z M14.9,12h-3v3h3V12z M14.9,20h-3v3h3V20z M14.9,28h-3v3h3V28z"/></g></g><text x="0" y="58" fill="#000000" font-size="5px" font-weight="bold" font-family="'Helvetica Neue', Helvetica, Arial-Unicode, Arial, Sans-serif">Created by Nigel Payne</text><text x="0" y="63" fill="#000000" font-size="5px" font-weight="bold" font-family="'Helvetica Neue', Helvetica, Arial-Unicode, Arial, Sans-serif">from the Noun Project</text></svg>